<?xml version="1.0" encoding="UTF-8" standalone="no"?>
<!-- Created with Inkscape (http://www.inkscape.org/) -->

<svg
   xmlns:dc="http://purl.org/dc/elements/1.1/"
   xmlns:cc="http://creativecommons.org/ns#"
   xmlns:rdf="http://www.w3.org/1999/02/22-rdf-syntax-ns#"
   xmlns:svg="http://www.w3.org/2000/svg"
   xmlns="http://www.w3.org/2000/svg"
   xmlns:sodipodi="http://sodipodi.sourceforge.net/DTD/sodipodi-0.dtd"
   xmlns:inkscape="http://www.inkscape.org/namespaces/inkscape"
   width="137.58138mm"
   height="57.018608mm"
   viewBox="0 0 137.58138 57.018608"
   version="1.1"
   id="svg833"
   inkscape:version="0.92.3 (2405546, 2018-03-11)"
   sodipodi:docname="logo.svg"
   inkscape:export-filename="/home/pivarski/diana/aghast/docs/source/logo-600px.png"
   inkscape:export-xdpi="110.77"
   inkscape:export-ydpi="110.77">
  <defs
     id="defs827" />
  <sodipodi:namedview
     id="base"
     pagecolor="#ffffff"
     bordercolor="#666666"
     borderopacity="1.0"
     inkscape:pageopacity="0.0"
     inkscape:pageshadow="2"
     inkscape:zoom="1"
     inkscape:cx="218.20617"
     inkscape:cy="118.13284"
     inkscape:document-units="mm"
     inkscape:current-layer="layer1"
     showgrid="false"
     inkscape:snap-nodes="false"
     inkscape:snap-others="false"
     inkscape:window-width="1914"
     inkscape:window-height="987"
     inkscape:window-x="0"
     inkscape:window-y="0"
     inkscape:window-maximized="0"
     fit-margin-top="5"
     fit-margin-left="5"
     fit-margin-right="5"
     fit-margin-bottom="5" />
  <metadata
     id="metadata830">
    <rdf:RDF>
      <cc:Work
         rdf:about="">
        <dc:format>image/svg+xml</dc:format>
        <dc:type
           rdf:resource="http://purl.org/dc/dcmitype/StillImage" />
        <dc:title></dc:title>
      </cc:Work>
    </rdf:RDF>
  </metadata>
  <g
     inkscape:label="Layer 1"
     inkscape:groupmode="layer"
     id="layer1"
     transform="translate(-28.635386,-104.35915)">
    <path
       inkscape:connector-curvature="0"
       id="path1398"
       style="font-style:normal;font-variant:normal;font-weight:normal;font-stretch:normal;font-size:medium;line-height:1.25;font-family:'Century Schoolbook L';-inkscape-font-specification:'Century Schoolbook L';text-align:start;letter-spacing:0px;word-spacing:0px;text-anchor:start;opacity:1;vector-effect:none;fill:#bcbcbc;fill-opacity:1;stroke:none;stroke-width:1;stroke-linecap:butt;stroke-linejoin:miter;stroke-miterlimit:4;stroke-dasharray:none;stroke-dashoffset:0;stroke-opacity:1;marker:none"
       d="m 51.354124,120.56246 c -1.449735,-1.22207 -4.354586,-2.05502 -7.24142,-2.15049 -5.051919,-0.16684 -9.162527,1.76557 -9.269991,5.01322 -0.05704,1.71424 0.944831,2.83097 2.523668,2.88332 1.398241,0.048 2.467058,-0.86678 2.511835,-2.21989 0.02133,-0.58635 -0.184968,-1.22531 -0.615087,-1.87184 4.668178,-3.62506 9.057358,-0.16845 8.758691,4.37132 -5.042165,0.98118 -14.070152,3.52958 -14.383158,8.84574 -0.106607,3.20255 2.396375,5.36252 6.365832,5.49387 3.112368,0.10338 6.156398,-0.63881 8.17207,-2.87581 0.645789,2.32426 1.537794,2.83587 3.657784,2.90608 2.02985,0.0677 4.193177,-1.17078 4.23646,-2.47889 0.016,-0.3161 -0.207356,-0.54866 -0.433369,-0.55624 -0.180171,-0.001 -0.362473,0.0319 -0.682623,0.15832 -0.730704,0.24626 -0.912527,0.28625 -1.273508,0.27345 -5.292057,-3.75954 1.224308,-13.91188 -2.327025,-17.79306 z m -4.938008,14.81461 c -1.18289,1.63172 -3.295043,2.69061 -5.234703,2.62643 -2.029903,-0.0677 -3.032889,-1.02052 -2.965618,-3.05032 0.06237,-1.8944 1.054638,-3.21631 3.070737,-4.09787 1.419189,-0.58555 3.193283,-0.97803 6.73097,-1.44818 0.197228,2.33054 -0.568817,4.53475 -1.601386,5.96972 z"
       sodipodi:nodetypes="csccccccccccccccccccccc" />
    <path
       inkscape:connector-curvature="0"
       id="path1400"
       style="font-style:normal;font-variant:normal;font-weight:normal;font-stretch:normal;font-size:medium;line-height:1.25;font-family:'Century Schoolbook L';-inkscape-font-specification:'Century Schoolbook L';text-align:start;letter-spacing:0px;word-spacing:0px;text-anchor:start;opacity:1;vector-effect:none;fill:#bcbcbc;fill-opacity:1;stroke:none;stroke-width:1;stroke-linecap:butt;stroke-linejoin:miter;stroke-miterlimit:4;stroke-dasharray:none;stroke-dashoffset:0;stroke-opacity:1;marker:none"
       d="m 63.062387,143.11188 c -2.48177,0.0564 -1.999894,-0.24308 -2.553678,-0.53865 -1.666898,-2.54942 1.81018,-3.0024 2.95032,-3.09052 4.280597,-0.25959 4.953252,-0.37953 6.41434,-1.11523 2.656823,-1.32603 4.096109,-3.73243 3.976866,-6.70871 -0.07303,-1.80388 -0.523454,-2.91497 -1.845629,-4.35249 0.734008,-0.84244 1.129051,-1.12932 1.489765,-1.14372 0.224946,-0.0108 0.365672,0.12044 0.476013,0.61328 0.223881,1.07504 0.96871,1.63236 2.096109,1.58714 1.127345,-0.0479 1.991311,-1.0283 1.942591,-2.24589 -0.0613,-1.53314 -1.322388,-2.56668 -3.081184,-2.49626 -1.442964,0.0597 -2.236621,0.54184 -4.235128,2.51844 -8.662154,-4.40906 -15.232892,-0.26279 -15.208905,5.72756 0.108204,2.66066 2.606451,5.52756 4.994884,6.51583 -2.994349,0.79749 -4.290192,2.1121 -4.190832,4.59238 0.07675,1.98433 1.115939,3.20933 3.264286,3.84594 -2.75613,1.10417 -4.056823,3.30656 -3.98273,5.15545 0.121005,2.97628 3.693125,4.95389 9.701281,4.26348 7.405279,-0.85095 11.218978,-3.60005 11.038967,-8.28384 -0.758422,-5.2717 -5.139979,-5.16098 -8.647922,-5.02842 z m 1.815789,-15.86647 c 2.840992,-0.11245 4.311741,0.68451 4.45092,4.15684 0.140724,3.51738 -1.042058,4.90503 -3.928146,5.02075 -2.795896,0.11137 -5.117372,-0.98059 -5.702872,-4.3145 -0.631984,-3.5976 2.158723,-4.74203 5.180098,-4.86309 z m 0.594872,19.6543 c 3.742911,-0.14977 4.013433,-0.16098 4.693551,-0.0959 1.811087,0.1088 2.361194,1.05006 2.418977,2.49313 0.04797,2.23384 -2.315886,3.88379 -7.207837,5.08859 -3.681077,0.90661 -5.997762,-0.88881 -6.079106,-2.91817 -0.06023,-1.48802 0.718018,-3.21791 2.837368,-4.43204 z"
       sodipodi:nodetypes="cccccccccccccccccsccccccsccccsccc" />
    <path
       inkscape:connector-curvature="0"
       id="path1402"
       style="font-style:normal;font-variant:normal;font-weight:normal;font-stretch:normal;font-size:medium;line-height:1.25;font-family:'Century Schoolbook L';-inkscape-font-specification:'Century Schoolbook L';text-align:start;letter-spacing:0px;word-spacing:0px;text-anchor:start;opacity:1;vector-effect:none;fill:#bcbcbc;fill-opacity:1;stroke:none;stroke-width:1;stroke-linecap:butt;stroke-linejoin:miter;stroke-miterlimit:4;stroke-dasharray:none;stroke-dashoffset:0;stroke-opacity:1;marker:none"
       d="m 84.647251,109.49407 -8.362901,-0.13492 -0.146056,1.93502 2.160129,0.16311 c 1.665138,0.12585 1.9113,0.46163 1.764979,2.39653 -1.155491,8.59883 -0.360342,15.71478 -0.984009,23.96547 -0.135927,1.8001 -1.542591,2.86386 -4.422975,2.64606 l -0.180171,-0.0108 -0.122061,1.62004 c 3.405171,-0.25533 7.301974,0.17431 11.385823,0.8611 l 0.122061,-1.62005 -0.180171,-0.0108 c -2.925214,-0.22175 -2.952079,-1.01103 -2.815938,-2.81104 -0.08316,-3.43736 -0.654425,-6.20906 1.425852,-10.62884 1.098189,-1.95362 2.785289,-2.84653 4.720364,-2.7001 1.170149,0.088 1.940298,0.8613 2.547281,1.81236 0.600427,1.0411 0.591952,2.40944 0.646216,4.62015 0.0613,2.48699 0.574627,4.90288 0.386993,7.37937 -0.135927,1.80011 -0.924946,2.78081 -3.850266,2.55954 l -0.180171,-0.0108 -0.122074,1.6201 c 3.421907,-0.47495 7.552186,0.49573 11.385768,0.86109 l -0.404577,-1.88825 c -1.512793,-0.35502 -2.754265,-0.56466 -2.868711,-2.11387 -0.179637,-2.66258 -0.016,-5.27185 -0.131128,-7.9024 0.245203,-3.24018 0.171643,-4.06044 -0.52292,-5.65186 -2.658169,-6.33367 -10.10832,-6.81853 -12.351175,-2.73433 z"
       sodipodi:nodetypes="ccccccccccccccccsccccccccccc" />
    <path
       inkscape:connector-curvature="0"
       id="path1406"
       style="font-style:normal;font-variant:normal;font-weight:normal;font-stretch:normal;font-size:medium;line-height:1.25;font-family:'Century Schoolbook L';-inkscape-font-specification:'Century Schoolbook L';text-align:start;letter-spacing:0px;word-spacing:0px;text-anchor:start;opacity:1;vector-effect:none;fill:#bcbcbc;fill-opacity:1;stroke:none;stroke-width:1;stroke-linecap:butt;stroke-linejoin:miter;stroke-miterlimit:4;stroke-dasharray:none;stroke-dashoffset:0;stroke-opacity:1;marker:none"
       d="m 144.1536,120.33084 -1.57665,-0.097 -1.40752,1.54009 c -1.54281,-1.36254 -3.17868,-2.36456 -5.43091,-2.50518 -2.33087,-0.25212 -4.58183,0.1088 -5.60048,1.55394 -0.89787,1.2732 -1.95741,2.52523 -2.07447,4.40028 -0.11137,1.75655 1.12196,3.80666 2.05671,4.76934 0.97698,1.01067 1.98482,1.5257 4.64808,2.325 l 2.35358,0.68955 c 3.50507,1.07799 5.26195,2.18082 4.59759,3.85934 -1.87153,4.72899 -8.05116,2.24754 -9.92974,-0.92085 -0.54137,-0.92431 -1.59568,-1.91716 -1.93401,-3.16605 l -1.80197,-0.10974 c 0.26226,2.74446 -0.074,5.61593 -0.53092,8.51332 l 1.57666,0.097 1.6918,-1.74839 c 1.75404,1.60176 3.78107,2.45181 6.03325,2.59237 4.4143,0.2756 7.51371,-2.28927 7.77516,-6.4783 0.66797,-4.58625 -1.90543,-5.88843 -5.24589,-6.83348 -1.96956,-0.22814 -4.33439,-1.03512 -5.73012,-1.68704 -3.03961,-2.39275 0.0555,-5.58827 2.26482,-5.49893 1.71167,0.10772 3.07138,0.77985 4.25666,2.07452 0.92915,1.05287 1.3684,1.98464 1.95976,4.1017 l 1.859,-0.0479 c -0.32036,-2.01872 -0.0108,-4.78652 0.18978,-7.42218 z"
       sodipodi:nodetypes="ccccsscccscccccccccccccccc" />
    <path
       inkscape:connector-curvature="0"
       id="path1408"
       style="font-style:normal;font-variant:normal;font-weight:normal;font-stretch:normal;font-size:medium;line-height:1.25;font-family:'Century Schoolbook L';-inkscape-font-specification:'Century Schoolbook L';text-align:start;letter-spacing:0px;word-spacing:0px;text-anchor:start;opacity:1;vector-effect:none;fill:#bcbcbc;fill-opacity:1;stroke:none;stroke-width:1;stroke-linecap:butt;stroke-linejoin:miter;stroke-miterlimit:4;stroke-dasharray:none;stroke-dashoffset:0;stroke-opacity:1;marker:none"
       d="m 153.7511,118.93517 0.56609,-8.21702 -1.8477,-0.10014 c -0.76855,5.83401 -3.08172,7.81802 -6.30954,8.33471 l -0.36355,2.19605 3.60513,0.46428 c -0.14819,5.54975 -1.58855,11.69223 -1.07772,17.00918 0.61828,1.93188 2.36476,3.06615 4.97852,3.20789 1.75751,0.0949 4.11598,-0.79697 5.20623,-1.73188 1.56536,-1.36146 2.55118,-3.70352 2.68561,-6.18209 0.016,-0.27026 0.0319,-0.58577 0.016,-1.03887 l -1.63257,0.42858 c -0.35502,4.04857 -1.89947,5.52703 -4.10774,5.40726 -1.03646,-0.0566 -1.90841,-0.64584 -2.1823,-1.42912 -2.05048,-2.56636 -0.44136,-9.36614 0.4451,-15.70469 0.8776,-0.33635 2.9356,-0.26758 6.62462,0.35929 l 0.10501,-1.93781 c -2.31305,-0.55111 -4.82004,-1.59851 -6.70943,-1.06519 z"
       sodipodi:nodetypes="ccccccccccccccccccc" />
    <path
       id="path1477"
       style="opacity:1;vector-effect:none;fill:#bcbcbc;fill-opacity:1;fill-rule:evenodd;stroke:none;stroke-width:1;stroke-linecap:butt;stroke-linejoin:miter;stroke-miterlimit:4;stroke-dasharray:none;stroke-dashoffset:0;stroke-opacity:1;marker:none"
       d="m 113.89145,131.55984 a 0.41395688,0.28407114 68.542877 0 1 -0.41578,-0.28144 0.41395688,0.28407114 68.542877 0 1 0.11246,-0.48934 0.41395688,0.28407114 68.542877 0 1 0.41578,0.28144 0.41395688,0.28407114 68.542877 0 1 -0.11248,0.48934 z m -2.65139,-0.12734 a 0.77912067,0.44521179 82.476292 0 1 -0.33902,0.83065 0.77912067,0.44521179 82.476292 0 1 -0.54355,-0.71407 0.77912067,0.44521179 82.476292 0 1 0.33902,-0.83065 0.77912067,0.44521179 82.476292 0 1 0.54355,0.71407 z m 7.24851,-4.87857 c 0.33422,1.00309 -0.18017,2.31241 -1.18311,2.64648 -1.00319,0.33422 -1.91828,0.15832 -2.2525,-0.84504 -0.33422,-1.00315 0.0426,-2.45314 1.04232,-2.78737 1.00315,-0.33422 2.05906,-0.016 2.39329,0.98593 z m -10.32826,-0.15086 c 0.30278,0.80549 -0.0688,1.9281 -0.87345,2.23098 -0.80469,0.30491 -1.41237,-0.21428 -1.7153,-1.01983 -0.30277,-0.80549 -0.1871,-1.59446 0.61855,-1.89734 0.80469,-0.3049 1.66733,-0.1199 1.9702,0.68619 z m 3.3588,8.27128 c -1.06445,0.73912 -0.5581,2.27324 -0.31983,3.30809 0.18284,1.22196 -0.15618,3.29537 1.54105,3.50001 1.54099,0.0374 1.44195,-1.81242 1.5476,-2.89813 -0.17431,-1.07954 -0.28092,-2.2701 -0.90432,-3.20156 -0.5112,-0.26492 -1.30544,-1.06332 -1.86466,-0.70841 z m -2.59323,-19.97533 c 6.03028,-1.95895 13.10245,0.0731 14.29414,8.40731 1.40362,9.81407 -4.04302,11.13875 -4.616,16.17762 -0.54275,4.775 -4.9364,12.33437 -8.39909,7.4285 -2.68539,-3.80452 -0.1226,-5.61108 -6.73646,-14.48155 -4.786729,-6.42004 -0.82713,-15.4904 5.45741,-17.53188 z"
       inkscape:connector-curvature="0" />
    <path
       style="opacity:1;vector-effect:none;fill:#bcbcbc;fill-opacity:1;stroke:none;stroke-width:1;stroke-linecap:butt;stroke-linejoin:miter;stroke-miterlimit:4;stroke-dasharray:none;stroke-dashoffset:0;stroke-opacity:1;marker:none"
       d="m 100.4794,121.16592 c -2.859812,2.64489 -2.513011,7.08039 -1.740196,10.45794 1.125374,4.91802 3.873506,9.44479 4.180496,14.58061 0.17324,2.87713 -0.30917,5.73363 -0.28785,8.58891 1.09254,1.18304 0.62777,-4.09835 1.78193,-5.04947 1.36221,-3.55827 3.97558,-8.20863 1.22836,-11.5823 -2.45709,-3.01749 -4.41402,-6.35299 -4.96887,-10.22048 -0.36408,-2.2582 0.15671,-4.50618 -0.1967,-6.77516 z"
       id="path1503"
       inkscape:connector-curvature="0"
       sodipodi:nodetypes="cssccsccc" />
    <path
       style="opacity:1;vector-effect:none;fill:#bcbcbc;fill-opacity:1;stroke:none;stroke-width:1;stroke-linecap:butt;stroke-linejoin:miter;stroke-miterlimit:4;stroke-dasharray:none;stroke-dashoffset:0;stroke-opacity:1;marker:none"
       d="m 124.53836,121.29726 c 1.488,1.4266 1.15266,3.80182 1.40693,5.67207 0.34008,2.50282 0.79066,5.11951 -0.26227,7.52607 -1.62084,3.70618 -3.55884,8.44984 -2.91455,12.19605 0.36621,2.12826 1.80761,3.63582 0.48827,5.63258 -0.50012,0.7569 -0.55671,3.2669 -0.796,1.07649 -0.43283,-2.93961 -1.64467,-5.62964 -2.16844,-8.56327 -0.40725,-2.28018 -0.75363,-4.53102 0.11301,-6.78273 0.99968,-2.59574 3.00938,-4.66365 3.31508,-7.54393 0.26013,-2.45928 0.81824,-4.88305 0.57202,-7.36541 -0.30651,-0.77644 0.60559,-1.19477 0.24573,-1.84786 z"
       id="path1518"
       inkscape:connector-curvature="0"
       sodipodi:nodetypes="csssscsssccc" />
  </g>
</svg>
