<?xml version="1.0" encoding="UTF-8" standalone="no"?>
<!-- Created with Inkscape (http://www.inkscape.org/) -->

<svg
   xmlns:dc="http://purl.org/dc/elements/1.1/"
   xmlns:cc="http://creativecommons.org/ns#"
   xmlns:rdf="http://www.w3.org/1999/02/22-rdf-syntax-ns#"
   xmlns:svg="http://www.w3.org/2000/svg"
   xmlns="http://www.w3.org/2000/svg"
   xmlns:xlink="http://www.w3.org/1999/xlink"
   xmlns:sodipodi="http://sodipodi.sourceforge.net/DTD/sodipodi-0.dtd"
   xmlns:inkscape="http://www.inkscape.org/namespaces/inkscape"
   width="133.31615mm"
   height="53.722206mm"
   viewBox="0 0 133.31615 53.722206"
   version="1.1"
   id="svg837"
   inkscape:version="0.92.3 (2405546, 2018-03-11)"
   sodipodi:docname="logo.svg"
   inkscape:export-filename="/home/pivarski/diana/stagg/docs/source/logo-1000.png"
   inkscape:export-xdpi="190.52457"
   inkscape:export-ydpi="190.52457">
  <defs
     id="defs831" />
  <sodipodi:namedview
     id="base"
     pagecolor="#ffffff"
     bordercolor="#666666"
     borderopacity="1.0"
     inkscape:pageopacity="0.0"
     inkscape:pageshadow="2"
     inkscape:zoom="1.4"
     inkscape:cx="235.53499"
     inkscape:cy="73.75021"
     inkscape:document-units="mm"
     inkscape:current-layer="g1696"
     showgrid="false"
     inkscape:snap-nodes="false"
     inkscape:window-width="1914"
     inkscape:window-height="987"
     inkscape:window-x="0"
     inkscape:window-y="0"
     inkscape:window-maximized="0"
     fit-margin-top="5"
     fit-margin-left="5"
     fit-margin-right="5"
     fit-margin-bottom="5" />
  <metadata
     id="metadata834">
    <rdf:RDF>
      <cc:Work
         rdf:about="">
        <dc:format>image/svg+xml</dc:format>
        <dc:type
           rdf:resource="http://purl.org/dc/dcmitype/StillImage" />
        <dc:title></dc:title>
      </cc:Work>
    </rdf:RDF>
  </metadata>
  <g
     inkscape:label="Layer 1"
     inkscape:groupmode="layer"
     id="layer1"
     transform="translate(-38.65628,-188.08509)">
    <g
       id="g1696">
      <path
         sodipodi:nodetypes="ccccccccccccccccccccccccccccccccccc"
         inkscape:connector-curvature="0"
         id="path1586"
         d="m 99.407738,234.63393 c 1.228422,0.88835 2.456852,0.51174 3.685272,-0.0945 0.0361,-1.3275 -0.41557,-2.16727 -1.13393,-2.74033 -5.364173,-1.32639 -9.274633,-1.11075 -14.079616,-1.98437 -0.955975,0.17013 -1.959298,0.52964 -2.834823,0.37797 -5.159538,-1.55774 -10.77169,-3.09034 -12.85119,-4.81919 -0.380085,-0.69955 -0.904418,-0.99561 -0.668174,-2.39953 1.542186,-0.95158 3.170996,-1.31838 5.008184,-1.98437 -1.47261,0.19232 -3.139298,0.49785 -3.590772,0.0945 -2.939425,0.23862 -3.595628,0.83481 -4.151023,2.68301 -1.611288,0.79176 -4.147836,-0.20917 -7.181548,-2.17336 -0.491231,-0.42631 -1.279534,-0.68923 -0.939208,-1.5729 -0.61217,0.13765 -1.139769,0.0699 -1.511905,-1e-5 l -0.0057,0.53347 c -0.49623,0.28251 -1.607786,-0.99461 -2.456846,-1.6064 -1.016364,-0.82871 -1.896738,-1.83874 -2.645834,-3.02381 -1.10736,-1.34802 -0.737299,-2.84323 -0.09449,-4.15773 -0.640486,0.27303 -1.475922,0.93597 -1.795386,0.56696 -0.39497,1.39242 -0.03995,3.43655 0.944937,4.25223 -4.195702,-3.18579 -4.675261,-4.85049 -6.898066,-9.4494 -1.272525,-3.38315 -1.470801,-8.15488 -1.984375,-8.69346 l -0.566965,-0.0945 c 0.188988,0.90233 0.377977,2.98509 0.566965,4.91369 0.835628,6.04058 3.263253,10.80756 6.614584,14.83557 5.628546,4.89354 12.526949,7.91923 18.426337,9.73288 1.319925,1.07441 3.332143,1.92729 5.764138,2.64584 2.132868,0.19124 4.688028,0.55403 9.638393,1.88988 0.251984,0.39657 0.503967,0.62124 0.755951,0.66146 0.335259,-1.55864 3.137126,0.0685 3.590774,0.85044 0.234107,0.99602 0.477648,1.76562 0.755952,1.7009 1.202131,0.62689 2.544242,1.00181 3.96875,1.22842 -0.336603,-0.28834 -0.136435,-0.61246 0.188989,-0.94494 -1.258038,-0.18833 -2.209938,-0.9483 -2.078868,-2.17337 2.958317,-1.00044 5.352674,-0.309 7.559528,0.94495 z"
         style="opacity:1;vector-effect:none;fill:#bcbcbc;fill-opacity:1;stroke:none;stroke-width:5.39731932;stroke-linecap:butt;stroke-linejoin:miter;stroke-miterlimit:4;stroke-dasharray:none;stroke-dashoffset:0;stroke-opacity:1;marker:none" />
      <use
         style="opacity:1;vector-effect:none;fill:#bcbcbc;fill-opacity:1;stroke:none;stroke-width:5.39731932;stroke-linecap:butt;stroke-linejoin:miter;stroke-miterlimit:4;stroke-dasharray:none;stroke-dashoffset:0;stroke-opacity:1;marker:none"
         height="100%"
         width="100%"
         transform="matrix(-1,0,0,1,210.6287,0)"
         id="use1602"
         xlink:href="#path1586"
         y="0"
         x="0" />
    </g>
    <g
       transform="matrix(4.2338944,0,0,4.2338944,-338.46466,-376.32872)"
       id="g1606"
       style="font-style:normal;font-variant:normal;font-weight:normal;font-stretch:normal;font-size:8.46666622px;line-height:1.25;font-family:Tholoth;-inkscape-font-specification:Tholoth;text-align:start;letter-spacing:0px;word-spacing:0px;text-anchor:start;opacity:1;vector-effect:none;fill:#bcbcbc;fill-opacity:1;stroke:none;stroke-width:1.22584224;stroke-linecap:butt;stroke-linejoin:miter;stroke-miterlimit:4;stroke-dasharray:none;stroke-dashoffset:0;stroke-opacity:1;marker:none"
       aria-label="S">
      <path
         inkscape:connector-curvature="0"
         id="path1604"
         style="font-style:normal;font-variant:normal;font-weight:normal;font-stretch:normal;font-family:Tholoth;-inkscape-font-specification:Tholoth;vector-effect:none;fill:#bcbcbc;fill-opacity:1;stroke:none;stroke-width:1.22584224;stroke-linecap:butt;stroke-linejoin:miter;stroke-miterlimit:4;stroke-dasharray:none;stroke-dashoffset:0;stroke-opacity:1;marker:none"
         d="m 96.662123,139.28506 q 0,-0.29163 -0.150519,-0.53622 -0.145815,-0.2446 -0.385704,-0.41863 -0.239889,-0.17874 -0.531518,-0.33867 -0.286926,-0.16463 -0.573852,-0.33867 -0.286926,-0.17874 -0.526815,-0.37629 -0.239889,-0.20226 -0.390407,-0.48919 -0.145815,-0.29163 -0.145815,-0.64441 0,-0.6444 0.437444,-1.04422 0.437445,-0.39981 1.030111,-0.39981 0.272815,0 0.531519,0.0753 0.258704,0.0705 0.446852,0.14111 0.192852,0.0705 0.291629,0.0705 0.225778,0 0.272815,-0.28692 H 97.1419 l 0.192852,1.80622 h -0.21637 q -0.20226,-0.73848 -0.625593,-1.09596 -0.418629,-0.35748 -0.921926,-0.35748 -0.395111,0 -0.639703,0.21637 -0.239889,0.21637 -0.239889,0.56444 0,0.34337 0.286926,0.64911 0.286926,0.30574 0.954851,0.67263 0.83726,0.45626 1.208852,0.8937 0.371593,0.43275 0.371593,0.95486 0,0.64911 -0.498593,1.09596 -0.493889,0.44215 -1.227666,0.44215 -0.319852,0 -0.602074,-0.0706 -0.277519,-0.0705 -0.475074,-0.14111 -0.197556,-0.0753 -0.315149,-0.0753 -0.09878,0 -0.169333,0.08 -0.06585,0.08 -0.07055,0.20226 h -0.183445 l -0.254,-1.79681 h 0.197556 q 0.310444,0.77141 0.72437,1.13359 0.413926,0.36219 0.97837,0.36219 0.465667,0 0.752593,-0.26341 0.29163,-0.26341 0.29163,-0.68674 z" />
    </g>
    <g
       transform="matrix(5.35752,0,0,5.35752,-507.39513,-527.10491)"
       id="g1610"
       style="font-style:normal;font-variant:normal;font-weight:normal;font-stretch:normal;font-size:8.46666622px;line-height:1.25;font-family:Tholoth;-inkscape-font-specification:Tholoth;text-align:start;letter-spacing:0px;word-spacing:0px;text-anchor:start;opacity:1;vector-effect:none;fill:#bcbcbc;fill-opacity:1;stroke:none;stroke-width:1.00742865;stroke-linecap:butt;stroke-linejoin:miter;stroke-miterlimit:4;stroke-dasharray:none;stroke-dashoffset:0;stroke-opacity:1;marker:none"
       aria-label="A">
      <path
         inkscape:connector-curvature="0"
         id="path1608"
         style="font-style:normal;font-variant:normal;font-weight:normal;font-stretch:normal;font-family:Tholoth;-inkscape-font-specification:Tholoth;vector-effect:none;fill:#bcbcbc;fill-opacity:1;stroke:none;stroke-width:1.00742865;stroke-linecap:butt;stroke-linejoin:miter;stroke-miterlimit:4;stroke-dasharray:none;stroke-dashoffset:0;stroke-opacity:1;marker:none"
         d="m 117.29239,140.8304 v 0.15993 h -2.1637 v -0.15993 q 0.33867,-0.009 0.46567,-0.0706 0.1317,-0.0611 0.1317,-0.22107 0,-0.19756 -0.15992,-0.56444 l -0.34808,-0.81374 h -2.22015 l -0.3857,0.99248 q -0.0658,0.15052 -0.0658,0.32926 0,0.17874 0.13641,0.2634 0.1364,0.0847 0.43744,0.0847 v 0.15993 h -1.68393 v -0.15993 q 0.22108,-0.009 0.34808,-0.0988 0.127,-0.0941 0.28222,-0.37159 0.15522,-0.27752 0.42333,-0.91722 l 1.75919,-4.15808 h 0.16933 l 2.11196,4.80719 q 0.21638,0.47037 0.34338,0.59267 0.1317,0.12229 0.41862,0.14581 z m -4.14866,-2.01789 h 1.95204 l -0.98308,-2.32833 z" />
    </g>
    <g
       transform="matrix(3.9872591,0,0,3.9872591,-365.92986,-341.36476)"
       id="g1614"
       style="font-style:normal;font-variant:normal;font-weight:normal;font-stretch:normal;font-size:8.46666622px;line-height:1.25;font-family:Tholoth;-inkscape-font-specification:Tholoth;text-align:start;letter-spacing:0px;word-spacing:0px;text-anchor:start;opacity:1;vector-effect:none;fill:#bcbcbc;fill-opacity:1;stroke:none;stroke-width:1.28464615;stroke-linecap:butt;stroke-linejoin:miter;stroke-miterlimit:4;stroke-dasharray:none;stroke-dashoffset:0;stroke-opacity:1;marker:none"
       aria-label="g">
      <path
         inkscape:connector-curvature="0"
         id="path1612"
         style="font-style:normal;font-variant:normal;font-weight:normal;font-stretch:normal;font-family:Tholoth;-inkscape-font-specification:Tholoth;vector-effect:none;fill:#bcbcbc;fill-opacity:1;stroke:none;stroke-width:1.28464615;stroke-linecap:butt;stroke-linejoin:miter;stroke-miterlimit:4;stroke-dasharray:none;stroke-dashoffset:0;stroke-opacity:1;marker:none"
         d="m 121.95125,138.92767 q 0,-0.15993 0.11759,-0.30104 0.11759,-0.14111 0.635,-0.62089 -0.42333,-0.21167 -0.60678,-0.47507 -0.17874,-0.26341 -0.17874,-0.66322 0,-0.57386 0.40923,-0.97367 0.40922,-0.40452 1.00188,-0.40452 0.31045,0 0.67734,0.1223 l 0.18344,0.0705 q 0.2493,0.0894 0.47037,0.0894 h 0.64911 v 0.32926 h -0.70555 q 0.16463,0.36219 0.16463,0.71026 0,0.58796 -0.39511,0.95015 -0.39041,0.35748 -0.92663,0.35748 -0.127,0 -0.31985,-0.0235 -0.009,0 -0.0659,-0.005 -0.0564,-0.005 -0.0941,-0.009 -0.16933,0.047 -0.33867,0.23048 -0.16933,0.17874 -0.16933,0.30574 0,0.19756 0.65381,0.22578 l 1.09597,0.0517 q 0.47037,0.0235 0.74789,0.26811 0.27751,0.23989 0.27751,0.63971 0,0.46566 -0.46566,0.85137 -0.32926,0.26811 -0.79493,0.41863 -0.46566,0.15522 -0.94074,0.15522 -0.60207,0 -1.03481,-0.24459 -0.43274,-0.23989 -0.43274,-0.57386 0,-0.23518 0.18814,-0.47037 0.18815,-0.23518 0.64441,-0.56444 -0.2587,-0.127 -0.35278,-0.22108 -0.0941,-0.0941 -0.0941,-0.22577 z m 0.62089,0.47507 q -0.26341,0.31985 -0.33867,0.45156 -0.0753,0.1317 -0.0753,0.27281 0,0.28222 0.33867,0.45156 0.33867,0.16933 0.89841,0.16933 0.71966,0 1.16181,-0.22578 0.44215,-0.22578 0.44215,-0.59737 0,-0.23048 -0.23989,-0.32455 -0.23518,-0.0941 -0.80904,-0.0941 -0.8984,0 -1.37818,-0.10348 z m 1.54752,-2.26718 q 0,-0.10349 -0.0188,-0.254 -0.0188,-0.15052 -0.08,-0.35749 -0.0565,-0.21166 -0.14582,-0.381 -0.0894,-0.17403 -0.254,-0.29633 -0.16463,-0.12229 -0.37629,-0.12229 -0.29163,0 -0.46097,0.21166 -0.16462,0.21167 -0.16462,0.58796 v 0.0282 q 0,0.60677 0.23988,0.98307 0.23989,0.3763 0.62089,0.3763 0.29163,0 0.46567,-0.20697 0.17404,-0.21166 0.17404,-0.56914 z" />
    </g>
    <g
       transform="matrix(4.6920006,0,0,4.6920006,-479.10014,-447.50761)"
       id="g1618"
       style="font-style:normal;font-variant:normal;font-weight:normal;font-stretch:normal;font-size:8.46666622px;line-height:1.25;font-family:Tholoth;-inkscape-font-specification:Tholoth;text-align:start;letter-spacing:0px;word-spacing:0px;text-anchor:start;opacity:1;vector-effect:none;fill:#bcbcbc;fill-opacity:1;stroke:none;stroke-width:1.21167409;stroke-linecap:butt;stroke-linejoin:miter;stroke-miterlimit:4;stroke-dasharray:none;stroke-dashoffset:0;stroke-opacity:1;marker:none"
       aria-label="g">
      <path
         inkscape:connector-curvature="0"
         id="path1616"
         style="font-style:normal;font-variant:normal;font-weight:normal;font-stretch:normal;font-family:Tholoth;-inkscape-font-specification:Tholoth;vector-effect:none;fill:#bcbcbc;fill-opacity:1;stroke:none;stroke-width:1.21167409;stroke-linecap:butt;stroke-linejoin:miter;stroke-miterlimit:4;stroke-dasharray:none;stroke-dashoffset:0;stroke-opacity:1;marker:none"
         d="m 131.21166,139.9671 q 0,-0.15993 0.1176,-0.30104 0.11759,-0.14111 0.635,-0.62089 -0.42334,-0.21167 -0.60678,-0.47507 -0.17874,-0.26341 -0.17874,-0.66323 0,-0.57385 0.40922,-0.97366 0.40922,-0.40452 1.00189,-0.40452 0.31044,0 0.67733,0.12229 l 0.18345,0.0706 q 0.24929,0.0894 0.47037,0.0894 h 0.64911 v 0.32926 h -0.70556 q 0.16463,0.36219 0.16463,0.71026 0,0.58796 -0.39511,0.95015 -0.39041,0.35748 -0.92663,0.35748 -0.127,0 -0.31985,-0.0235 -0.009,0 -0.0658,-0.005 -0.0565,-0.005 -0.0941,-0.009 -0.16933,0.047 -0.33866,0.23048 -0.16934,0.17874 -0.16934,0.30574 0,0.19756 0.65382,0.22578 l 1.09596,0.0517 q 0.47037,0.0235 0.74789,0.26811 0.27752,0.23989 0.27752,0.6397 0,0.46567 -0.46567,0.85138 -0.32926,0.26811 -0.79492,0.41862 -0.46567,0.15523 -0.94074,0.15523 -0.60208,0 -1.03482,-0.2446 -0.43274,-0.23988 -0.43274,-0.57385 0,-0.23518 0.18815,-0.47037 0.18815,-0.23518 0.64441,-0.56444 -0.25871,-0.127 -0.35278,-0.22108 -0.0941,-0.0941 -0.0941,-0.22577 z m 0.62089,0.47507 q -0.26341,0.31985 -0.33866,0.45156 -0.0753,0.1317 -0.0753,0.27281 0,0.28222 0.33866,0.45156 0.33867,0.16933 0.89841,0.16933 0.71967,0 1.16182,-0.22578 0.44214,-0.22578 0.44214,-0.59737 0,-0.23048 -0.23989,-0.32455 -0.23518,-0.0941 -0.80903,-0.0941 -0.89841,0 -1.37819,-0.10348 z m 1.54752,-2.26719 q 0,-0.10348 -0.0188,-0.254 -0.0188,-0.15051 -0.08,-0.35748 -0.0564,-0.21166 -0.14581,-0.381 -0.0894,-0.17403 -0.254,-0.29633 -0.16463,-0.1223 -0.3763,-0.1223 -0.29163,0 -0.46096,0.21167 -0.16463,0.21167 -0.16463,0.58796 v 0.0282 q 0,0.60677 0.23989,0.98307 0.23989,0.3763 0.62089,0.3763 0.29163,0 0.46566,-0.20697 0.17404,-0.21166 0.17404,-0.56915 z" />
    </g>
    <text
       id="text1622"
       y="223.63051"
       x="76.807495"
       style="font-style:normal;font-variant:normal;font-weight:normal;font-stretch:normal;font-size:44.70598221px;line-height:1.25;font-family:Tholoth;-inkscape-font-specification:Tholoth;text-align:start;letter-spacing:0px;word-spacing:0px;text-anchor:start;opacity:1;vector-effect:none;fill:#bcbcbc;fill-opacity:1;stroke:none;stroke-width:5.7474041;stroke-linecap:butt;stroke-linejoin:miter;stroke-miterlimit:4;stroke-dasharray:none;stroke-dashoffset:0;stroke-opacity:1;marker:none"
       xml:space="preserve"><tspan
         style="font-style:normal;font-variant:normal;font-weight:normal;font-stretch:normal;font-family:Tholoth;-inkscape-font-specification:Tholoth;vector-effect:none;fill:#bcbcbc;fill-opacity:1;stroke:none;stroke-width:5.7474041;stroke-linecap:butt;stroke-linejoin:miter;stroke-miterlimit:4;stroke-dasharray:none;stroke-dashoffset:0;stroke-opacity:1;marker:none"
         y="223.63051"
         x="76.807495"
         id="tspan1620"
         sodipodi:role="line">t</tspan></text>
  </g>
</svg>
